<?xml version="1.0" encoding="UTF-8"?>
<svg xmlns="http://www.w3.org/2000/svg" viewBox="0 0 477 477">
  <defs>
    <style>
      .cls-1, .cls-2 {
        fill: none;
        stroke: currentColor;
        stroke-miterlimit: 10;
        stroke-width: 10px;
      }

      .cls-2 {
        stroke-linecap: round;
      }
    </style>
  </defs>
  <path class="cls-2" d="M126,176.29l-35.08-57.78c-.4-.67.08-1.52.85-1.52h69.64c.36,0,.69.19.87.51l80.71,143.49,80.71-143.49c.18-.31.51-.51.87-.51h60.69c.77,0,1.25.83.87,1.5l-143.15,250.5-32.79-54"/>
  <line class="cls-1" x1="99" y1="198" x2="144" y2="198"/>
  <line class="cls-1" x1="126" y1="243" x2="180" y2="243"/>
  <path class="cls-1" d="M162,297h48.04c.78,0,1.26-.85.85-1.52l-53.72-88.48"/>
  <circle class="cls-2" cx="81" cy="198" r="18"/>
  <circle class="cls-2" cx="139.5" cy="297" r="18"/>
  <circle class="cls-2" cx="153" cy="198" r="13.5"/>
  <circle class="cls-2" cx="112.5" cy="243" r="13.5"/>
</svg>